<svg width="72" height="72" viewBox="0 0 72 72" fill="none" xmlns="http://www.w3.org/2000/svg">
<path d="M11.9697 4.77783H9.57571V7.16672H11.9697V4.77783Z" fill="#FED233"/>
<path d="M16.7576 4.77783H14.3637V7.16672H16.7576V4.77783Z" fill="#FED233"/>
<path d="M7.18192 4.77783H4.78796V7.16672H7.18192V4.77783Z" fill="#FED233"/>
<path d="M67.0307 0H4.78791C2.14364 0 0 2.1391 0 4.77778V66.8889C0 69.5276 2.14364 71.6667 4.78791 71.6667H67.0307C69.675 71.6667 71.8186 69.5276 71.8186 66.8889V4.77778C71.8186 2.1391 69.675 0 67.0307 0ZM69.4247 66.8889C69.4247 68.2083 68.3529 69.2778 67.0307 69.2778H4.78791C3.4657 69.2778 2.39395 68.2083 2.39395 66.8889V11.9444H69.4247V66.8889ZM69.4247 9.55556H2.39395V4.77778C2.39395 3.45836 3.4657 2.38889 4.78791 2.38889H67.0307C68.3529 2.38889 69.4247 3.45836 69.4247 4.77778V9.55556Z" fill="#FED233"/>
<path d="M59.8488 35.8334H55.6797C55.1894 33.7866 54.3792 31.8296 53.2786 30.0344L56.2231 27.0972C56.6904 26.6308 56.6904 25.8747 56.2231 25.4083L51.1443 20.3402C50.6694 19.8922 49.9267 19.8922 49.4518 20.3402L46.5084 23.2786C44.7094 22.1803 42.7483 21.3718 40.6971 20.8825V16.7223C40.6971 16.0626 40.1612 15.5278 39.5002 15.5278H32.3183C31.6573 15.5278 31.1213 16.0626 31.1213 16.7223V20.8825C29.0701 21.3718 27.109 22.1803 25.31 23.2786L22.3666 20.3402C21.8992 19.874 21.1415 19.874 20.6741 20.3402L15.5953 25.4083C15.1281 25.8747 15.1281 26.6308 15.5953 27.0972L18.5399 30.0344C17.4393 31.8296 16.6291 33.7866 16.1388 35.8334H11.9697C11.3087 35.8334 10.7727 36.3682 10.7727 37.0278V44.1945C10.7727 44.8541 11.3087 45.3889 11.9697 45.3889H16.1388C16.6291 47.4358 17.4393 49.3927 18.5399 51.188L15.5953 54.1251C15.1281 54.5915 15.1281 55.3476 15.5953 55.8141L20.6741 60.8821C21.149 61.3301 21.8917 61.3301 22.3666 60.8821L25.31 57.9437C27.109 59.042 29.0701 59.8505 31.1213 60.3398V64.5001C31.1213 65.1597 31.6573 65.6945 32.3183 65.6945H39.5002C40.1612 65.6945 40.6971 65.1597 40.6971 64.5001V60.3398C42.7483 59.8505 44.7094 59.042 46.5084 57.9437L49.4518 60.8821C49.9192 61.3484 50.6769 61.3484 51.1443 60.8821L56.2231 55.8141C56.6904 55.3476 56.6904 54.5915 56.2231 54.1251L53.2786 51.188C54.3792 49.3927 55.1894 47.4358 55.6797 45.3889H59.8488C60.5098 45.3889 61.0457 44.8541 61.0457 44.1945V37.0278C61.0457 36.3682 60.5098 35.8334 59.8488 35.8334ZM58.6518 43.0001H54.7125C54.138 43.0002 53.6445 43.4078 53.5371 43.9711C53.0848 46.3742 52.1393 48.6581 50.7601 50.6791C50.4369 51.153 50.4968 51.7892 50.9026 52.1949L53.6843 54.9696L50.2981 58.3487L47.5199 55.5728C47.1134 55.1679 46.4758 55.1081 46.0009 55.4306C43.9756 56.8069 41.6869 57.7504 39.2787 58.2017C38.7142 58.309 38.3057 58.8014 38.3056 59.3747V63.3056H33.5153V59.3747C33.5151 58.8014 33.1066 58.309 32.5421 58.2017C30.134 57.7504 27.8452 56.8069 25.8199 55.4306C25.345 55.1081 24.7075 55.1679 24.3009 55.5728L21.5204 58.3487L18.1341 54.9696L20.9159 52.1973C21.3217 51.7916 21.3815 51.1554 21.0583 50.6815C19.6791 48.6605 18.7336 46.3766 18.2813 43.9735C18.175 43.4093 17.6812 43.0005 17.1059 43.0001H13.1667V38.2223H17.1059C17.6805 38.2221 18.1739 37.8145 18.2813 37.2512C18.7336 34.8481 19.6791 32.5642 21.0583 30.5432C21.3815 30.0693 21.3217 29.4331 20.9159 29.0274L18.1341 26.2527L21.5204 22.8737L24.2985 25.6496C24.7051 26.0545 25.3426 26.1142 25.8175 25.7917C27.8428 24.4154 30.1316 23.4719 32.5397 23.0206C33.1052 22.9144 33.5148 22.4217 33.5153 21.8476V17.9167H38.3032V21.8476C38.3033 22.421 38.7118 22.9134 39.2763 23.0206C41.6845 23.4719 43.9733 24.4154 45.9985 25.7917C46.4734 26.1142 47.111 26.0545 47.5175 25.6496L50.2981 22.8737L53.6843 26.2527L50.9026 29.0251C50.4968 29.4307 50.4369 30.0669 50.7601 30.5408C52.1393 32.5618 53.0848 34.8457 53.5371 37.2488C53.6445 37.8121 54.138 38.2197 54.7125 38.2199H58.6518V43.0001Z" fill="#FED233"/>
<path d="M35.9093 25.0834C27.3153 25.0834 20.3486 32.0353 20.3486 40.6112C20.3486 49.187 27.3153 56.1389 35.9093 56.1389C44.5033 56.1389 51.47 49.187 51.47 40.6112C51.4602 32.0395 44.4991 25.0932 35.9093 25.0834ZM35.9093 53.75C28.6375 53.75 22.7426 47.8676 22.7426 40.6112C22.7426 33.3548 28.6375 27.4723 35.9093 27.4723C43.1811 27.4723 49.0761 33.3548 49.0761 40.6112C49.0675 47.864 43.1775 53.7415 35.9093 53.75Z" fill="#FED233"/>
<path d="M31.8395 37.9834L30.4032 36.0723L25.6153 39.6556C25.0863 40.0514 24.9792 40.8 25.3759 41.3278C25.4439 41.4183 25.5246 41.4988 25.6153 41.5667L30.4032 45.15L31.8395 43.2389L28.3288 40.6112L31.8395 37.9834Z" fill="#FED233"/>
<path d="M46.4426 39.8945C46.3746 39.804 46.2939 39.7235 46.2033 39.6556L41.4153 36.0723L39.979 37.9834L43.4897 40.6112L39.979 43.2389L41.4153 45.15L46.2033 41.5667C46.7322 41.1709 46.8393 40.4223 46.4426 39.8945Z" fill="#FED233"/>
<path d="M37.1977 34.2042L32.4027 46.145L34.6257 47.0314L39.4207 35.0906L37.1977 34.2042Z" fill="#FED233"/>
</svg>
