<svg width="77" height="75" viewBox="0 0 77 75" fill="none" xmlns="http://www.w3.org/2000/svg">
<path d="M73.2278 0H3.60137C1.61236 0 0 1.62475 0 3.62903V56.8548C0 57.5229 0.537504 58.0645 1.20046 58.0645H28.5469L26.6261 67.7419H24.0091C23.3462 67.7419 22.8087 68.2836 22.8087 68.9516V72.5807H20.4078V75H56.4215V72.5807H54.0205V68.9516C54.0205 68.2836 53.483 67.7419 52.8201 67.7419H50.2011L48.2804 58.0645H75.6288C76.2917 58.0645 76.8292 57.5229 76.8292 56.8548V3.62903C76.8292 1.62475 75.2168 0 73.2278 0ZM49.2187 70.1613H51.6196V72.5807H25.2096V70.1613H27.6105H49.2187ZM29.0751 67.7419L30.994 58.0645H45.8334L47.7542 67.7419H29.0751ZM74.4283 55.6452H2.40091V44.7581H19.2073H26.41H33.6128H40.8155H48.0183H57.6219H74.4283V55.6452ZM57.6219 10.8871H48.0183C47.3553 10.8871 46.8178 11.4287 46.8178 12.0968V22.9839H49.2187V13.3065H56.4215V18.1452H51.6196V20.5645H56.4215V26.6129H51.6196V29.0323H56.4215V35.0806H51.6196V37.5H56.4215V42.3387H49.2187V32.6613H46.8178V42.3387H42.016V36.2903C42.016 31.3536 47.9654 30.2685 48.2151 30.225C48.3631 30.2001 48.505 30.1474 48.6338 30.0697C49.2027 29.7265 49.3877 28.9836 49.047 28.4105L38.2429 10.2653C38.1559 10.1374 38.0462 10.0269 37.9193 9.93916C37.3512 9.54677 36.5748 9.69269 36.1854 10.2653L25.3812 28.4105C25.3046 28.5393 25.2523 28.6815 25.2274 28.8296C25.1162 29.4883 25.5559 30.113 26.2096 30.225C26.4629 30.2685 32.4123 31.3536 32.4123 36.2903V42.3387H27.6105V32.6613H25.2096V42.3387H24.0091V20.5645H25.2096V22.9839H27.6105V19.3548C27.6108 19.1909 27.5778 19.0287 27.5133 18.8782L23.9119 10.4105C23.7905 10.1253 23.565 9.89804 23.282 9.77571C22.6727 9.5123 21.9669 9.79657 21.7055 10.4105L18.1041 18.8782C18.0396 19.0287 18.0065 19.1909 18.0068 19.3548V42.3387H8.40319V8.46774H68.426V42.3387H58.8224V12.0968C58.8224 11.4287 58.2849 10.8871 57.6219 10.8871ZM34.8132 38.7097V37.5H39.6151V38.7097H34.8132ZM39.6151 41.129V42.3387H34.8132V41.129H39.6151ZM34.7256 35.0806C34.1506 31.2339 30.8817 29.1532 28.2671 28.2641L36.0137 15.2548V25.4032H38.4146V15.2548L46.1611 28.2641C43.5442 29.1472 40.2777 31.2339 39.7027 35.0806H34.7256ZM21.0252 18.1452L22.8087 13.9524L24.5921 18.1452H21.0252ZM21.6082 20.5645V42.3387H20.4078V20.5645H21.6082ZM74.4283 42.3387H70.8269V7.25806C70.8269 6.59002 70.2894 6.04839 69.6265 6.04839H7.20274C6.53979 6.04839 6.00228 6.59002 6.00228 7.25806V42.3387H2.40091V3.62903C2.40091 2.96099 2.93842 2.41935 3.60137 2.41935H73.2278C73.8908 2.41935 74.4283 2.96099 74.4283 3.62903V42.3387Z" fill="#FED233"/>
<path d="M38.4147 45.9677C36.4257 45.9677 34.8133 47.5925 34.8133 49.5967C34.8133 51.601 36.4257 53.2258 38.4147 53.2258C40.4037 53.2258 42.0161 51.601 42.0161 49.5967C42.0161 47.5925 40.4037 45.9677 38.4147 45.9677ZM38.4147 50.8064C37.7517 50.8064 37.2142 50.2648 37.2142 49.5967C37.2142 48.9287 37.7517 48.3871 38.4147 48.3871C39.0776 48.3871 39.6151 48.9287 39.6151 49.5967C39.6151 50.2648 39.0776 50.8064 38.4147 50.8064Z" fill="#FED233"/>
</svg>
