<svg width="69" height="83" viewBox="0 0 69 83" fill="none" xmlns="http://www.w3.org/2000/svg">
<path d="M27.4549 6.17218H22.3128C21.6371 6.17218 21.0893 6.71638 21.0893 7.388C21.0893 8.05962 21.6371 8.60382 22.3128 8.60382H27.4549C28.1307 8.60382 28.6785 8.05962 28.6785 7.388C28.6785 6.71638 28.1308 6.17218 27.4549 6.17218Z" fill="#FED233"/>
<path d="M28.2986 71.5732H21.469C19.7747 71.5732 18.3965 72.9427 18.3965 74.6264V75.5506C18.3965 77.2343 19.775 78.6039 21.469 78.6039H28.2986C29.993 78.6039 31.3712 77.2341 31.3712 75.5506V74.6264C31.3712 72.9427 29.9928 71.5732 28.2986 71.5732ZM28.9239 75.5506C28.9239 75.8875 28.6376 76.1721 28.2986 76.1721H21.469C21.13 76.1721 20.8437 75.8875 20.8437 75.5506V74.6264C20.8437 74.2895 21.13 74.005 21.469 74.005H28.2986C28.6376 74.005 28.9239 74.2895 28.9239 74.6264V75.5506Z" fill="#FED233"/>
<path d="M67.2662 40.7796H63.56C63.3338 40.0661 63.0458 39.3747 62.6985 38.7117L65.3188 36.1079C65.6464 35.7824 65.8268 35.3496 65.8268 34.8892C65.8268 34.4289 65.6464 33.9961 65.319 33.6709L62.2349 30.6061C61.559 29.9351 60.4593 29.9354 59.7831 30.6064L57.1624 33.2105C56.4952 32.8654 55.7996 32.5793 55.0815 32.3546V28.6716C55.0815 27.7217 54.3036 26.9486 53.3475 26.9486H49.7679V20.5185C49.7679 19.8469 49.2201 19.3027 48.5444 19.3027C47.8687 19.3027 47.2525 19.8469 47.2525 20.5185V28.1975V32.3546C46.5342 32.5794 45.8386 32.8654 45.1715 33.2107L44.4845 32.5279V14.4029C44.4845 13.1837 43.4863 12.1911 42.2585 12.1911C41.066 12.1911 9.39839 12.1911 7.50974 12.1911C6.28246 12.1911 5.28389 13.1832 5.28389 14.4029V67.3881C5.28389 68.6074 6.2823 69.5999 7.50974 69.5999H42.2585C43.4858 69.5999 44.4844 68.6078 44.4844 67.3881V56.8109L45.1713 56.1283C45.8386 56.4737 46.5342 56.7598 47.2523 56.9845C47.2523 60.8925 47.229 60.8244 47.3207 61.1417V61.1418V77.8718C47.3207 79.3587 46.1035 80.5682 44.6072 80.5682H27.739C27.0632 80.5682 26.5154 81.1124 26.5154 81.784C26.5154 82.4556 27.0632 82.9998 27.739 82.9998H44.6071C47.4527 82.9998 49.7677 80.6993 49.7677 77.8717V62.3904H53.3473C54.3033 62.3904 55.0813 61.6173 55.0813 60.6672V56.9844C55.7994 56.7595 56.4951 56.4735 57.1623 56.1283L59.7829 58.7324C60.459 59.404 61.5592 59.404 62.235 58.7324L65.3187 55.6682C65.6462 55.3427 65.8267 54.91 65.8267 54.4496C65.8267 53.9892 65.6462 53.5566 65.3188 53.2312L62.6984 50.6272C63.0457 49.9642 63.3338 49.2731 63.5599 48.5594H67.266C68.222 48.5594 69 47.7864 69 46.8363V42.5025C69.0002 41.5527 68.2224 40.7796 67.2662 40.7796ZM14.8893 14.6232H42.037V19.9017H14.8893V14.6232ZM7.73079 14.6232H12.4419V19.9017H7.73079V14.6232ZM7.73079 67.1681V22.3335C9.53901 22.3335 40.751 22.3335 42.0368 22.3335V30.254C41.3968 29.968 40.6159 30.0925 40.0984 30.6064L37.0146 33.6708C36.3311 34.3502 36.3437 35.4413 37.0146 36.1077L39.6351 38.7117C39.5088 38.9526 39.3933 39.1984 39.2829 39.4466C39.0894 39.8812 38.9176 40.3252 38.7736 40.7794H35.0674C34.1114 40.7794 33.3334 41.5522 33.3334 42.5025V43.4534H12.6885C12.0128 43.4534 11.465 43.9976 11.465 44.6692C11.465 45.3408 12.0128 45.885 12.6885 45.885H33.3334V46.836C33.3334 47.7858 34.111 48.559 35.0674 48.559H38.7736C38.9834 49.2208 39.2617 49.914 39.6351 50.6267L37.0146 53.2309C36.3386 53.9028 36.3386 54.9959 37.0146 55.6677L40.0984 58.7321C40.6046 59.2348 41.3807 59.3769 42.0368 59.0846V67.1677H7.73079V67.1681ZM66.5531 46.1276H62.6276C62.0592 46.1276 61.5657 46.5165 61.4362 47.0663C61.1751 48.1745 60.7373 49.2256 60.1345 50.1904C59.8346 50.6702 59.9067 51.292 60.3087 51.6916L63.0842 54.4496L61.0091 56.5118L58.2334 53.7537C57.8313 53.3546 57.2058 53.2826 56.7226 53.5807C55.7516 54.1797 54.6938 54.615 53.5791 54.8742C53.0256 55.0027 52.6342 55.4931 52.6342 56.0581V59.9589H49.6996V56.0581C49.6996 55.4933 49.3082 55.0027 48.7547 54.8742C47.6398 54.615 46.582 54.1799 45.6112 53.5807C45.1284 53.2828 44.5025 53.3544 44.1003 53.7538L41.3249 56.512L39.2496 54.4498L42.0251 51.6918C42.4272 51.2922 42.4992 50.67 42.1993 50.1902C41.5962 49.2252 41.1575 48.17 40.8978 47.0667C40.7684 46.5166 40.2748 46.1277 39.7064 46.1277H35.781V43.2115H39.7064C40.2748 43.2115 40.7683 42.8226 40.8978 42.2726C41.1482 41.2093 41.5866 40.1294 42.1993 39.1489C42.3117 38.969 42.3719 38.7691 42.382 38.5684C42.3988 38.234 42.2763 37.8973 42.0251 37.6478L40.1748 35.809L39.2498 34.8897L41.3249 32.8275L44.1003 35.5856C44.5022 35.985 45.1281 36.0568 45.6112 35.7587C46.5818 35.1597 47.6395 34.7246 48.7547 34.4653C49.3082 34.3367 49.6996 33.8463 49.6996 33.2814V29.3805H52.6342V33.281C52.6342 33.8458 53.0256 34.3362 53.5791 34.4649C54.6942 34.7241 55.752 35.1592 56.7228 35.7584C57.2055 36.0562 57.8315 35.9845 58.2334 35.5853L61.0091 32.8271L63.0843 34.8893L60.3089 37.6475C59.9069 38.0469 59.8348 38.6688 60.1347 39.1488C60.7374 40.1135 61.1755 41.1646 61.4363 42.2728C61.5657 42.8226 62.0593 43.2115 62.6277 43.2115H66.5531V46.1276Z" fill="#FED233"/>
<path d="M51.1668 38.1554C47.5522 38.1554 44.6113 41.0776 44.6113 44.6696C44.6113 48.2616 47.552 51.1838 51.1668 51.1838C54.7815 51.1838 57.7222 48.2616 57.7222 44.6696C57.7224 41.0776 54.7815 38.1554 51.1668 38.1554ZM51.1668 48.752C48.9015 48.752 47.0584 46.9205 47.0584 44.6694C47.0584 42.4184 48.9013 40.5869 51.1668 40.5869C53.4322 40.5869 55.275 42.4184 55.275 44.6694C55.275 46.9205 53.432 48.752 51.1668 48.752Z" fill="#FED233"/>
<path d="M34.5568 30.2407H12.6884C12.0127 30.2407 11.4649 30.7849 11.4649 31.4565C11.4649 32.1282 12.0127 32.6724 12.6884 32.6724H34.5568C35.2326 32.6724 35.7804 32.1282 35.7804 31.4565C35.7805 30.7849 35.2326 30.2407 34.5568 30.2407Z" fill="#FED233"/>
<path d="M34.5568 36.8473H12.6884C12.0127 36.8473 11.4649 37.3915 11.4649 38.0631C11.4649 38.7347 12.0127 39.2789 12.6884 39.2789H34.5568C35.2326 39.2789 35.7804 38.7347 35.7804 38.0631C35.7805 37.3915 35.2326 36.8473 34.5568 36.8473Z" fill="#FED233"/>
<path d="M34.5568 50.06H12.6884C12.0127 50.06 11.4649 50.6042 11.4649 51.2758C11.4649 51.9474 12.0127 52.4916 12.6884 52.4916H34.5568C35.2326 52.4916 35.7804 51.9474 35.7804 51.2758C35.7804 50.6042 35.2326 50.06 34.5568 50.06Z" fill="#FED233"/>
<path d="M34.5568 56.6663H12.6884C12.0127 56.6663 11.4649 57.2105 11.4649 57.8821C11.4649 58.5538 12.0127 59.098 12.6884 59.098H34.5568C35.2326 59.098 35.7804 58.5538 35.7804 57.8821C35.7804 57.2105 35.2326 56.6663 34.5568 56.6663Z" fill="#FED233"/>
<path d="M44.6072 0H5.16069C2.31508 0 -1.0455e-07 2.30049 -1.0455e-07 5.12817V77.8718C-1.0455e-07 80.6993 2.31508 83 5.16069 83H22.0288C22.7045 83 23.2523 82.4558 23.2523 81.7842C23.2523 81.1126 22.7045 80.5684 22.0286 80.5684H5.16069C3.6644 80.5684 2.44723 79.3589 2.44723 77.872V5.12817C2.44723 3.6413 3.6644 2.4318 5.16069 2.4318H44.6072C46.1035 2.4318 47.3207 3.6413 47.3207 5.12817V14.8444C47.3207 15.516 47.8685 16.0602 48.5442 16.0602C49.2199 16.0602 49.7677 15.516 49.7677 14.8444V5.12817C49.7677 2.30049 47.4526 0 44.6072 0Z" fill="#FED233"/>
</svg>
