<svg width="80" height="80" viewBox="0 0 80 80" fill="none" xmlns="http://www.w3.org/2000/svg">
<path d="M80 60V22.6667C79.9957 18.9867 77.0133 16.0043 73.3333 16H58.6667V0H56V18.424C55.2492 17.1685 54.3542 16.0052 53.3333 14.9573V0H50.6667V15.5107C50.6667 15.8735 50.8145 16.2207 51.076 16.472C54.2308 19.4753 56.0115 23.6442 56 28C56.008 36.8365 48.8512 44.0065 40.0145 44.0145C31.178 44.0225 24.008 36.8657 24 28.029C23.9933 20.6098 29.0878 14.1592 36.3067 12.4465C36.9082 12.3043 37.3332 11.7673 37.3333 11.1492V8H34.6667V10.1253C31.1652 11.1602 28.046 13.2033 25.6987 16H6.66667C2.98667 16.0043 0.00433333 18.9867 0 22.6667V60C0.00433333 63.68 2.98667 66.6623 6.66667 66.6667H28.5093L25.8427 72H1.33333C0.597 72 0 72.597 0 73.3333C0 80 7.02533 80 9.33333 80H70.6667C72.9747 80 80 80 80 73.3333C80 72.597 79.403 72 78.6667 72H54.1573L51.4907 66.6667H73.3333C77.0133 66.6623 79.9957 63.68 80 60ZM35.9358 46.2253C37.2703 46.521 38.6332 46.6692 40 46.6667C50.3045 46.6548 58.655 38.3045 58.6667 28V24H72V56H8V24H21.7747C19.5478 34.0478 25.888 43.9985 35.9358 46.2253ZM77.172 74.6667C76.7067 76.308 75.0973 77.3333 70.6667 77.3333H9.33333C4.90267 77.3333 3.29333 76.308 2.828 74.6667H77.172ZM28.824 72L31.4907 66.6667H48.5093L51.176 72H28.824ZM6.66667 64C4.4575 64 2.66667 62.2092 2.66667 60V22.6667C2.66667 20.4575 4.4575 18.6667 6.66667 18.6667H23.8347C23.3422 19.5205 22.9187 20.4122 22.568 21.3333H6.66667C5.93033 21.3333 5.33333 21.9303 5.33333 22.6667V57.3333C5.33333 58.0697 5.93033 58.6667 6.66667 58.6667H73.3333C74.0697 58.6667 74.6667 58.0697 74.6667 57.3333V22.6667C74.6667 21.9303 74.0697 21.3333 73.3333 21.3333H58.6667V18.6667H73.3333C75.5425 18.6667 77.3333 20.4575 77.3333 22.6667V60C77.3333 62.2092 75.5425 64 73.3333 64H6.66667Z" fill="#FED233"/>
<path d="M40 21.3333C36.32 21.3376 33.3376 24.32 33.3333 28C33.3333 31.6818 36.3181 34.6666 40 34.6666C43.6818 34.6666 46.6666 31.6818 46.6666 28C46.6666 24.3181 43.6818 21.3333 40 21.3333ZM40 32C37.7908 32 36 30.2091 36 28C36 25.7908 37.7908 24 40 24C42.2091 24 44 25.7908 44 28C44 30.2091 42.2091 32 40 32Z" fill="#FED233"/>
<path d="M45.3333 0V10.1133C44.4597 9.8565 43.5685 9.664 42.6667 9.53733V6.66667H40V10.7347C39.998 11.4332 40.5355 12.0148 41.232 12.068C42.9242 12.1917 44.5857 12.5855 46.1533 13.2347C46.833 13.5182 47.6137 13.197 47.8972 12.5175C47.9655 12.3535 48.0005 12.1777 48 12V0H45.3333Z" fill="#FED233"/>
<path d="M42.6667 0H40V4H42.6667V0Z" fill="#FED233"/>
<path d="M37.3333 2.66669H34.6666V5.33335H37.3333V2.66669Z" fill="#FED233"/>
<path d="M52 24H49.888C49.8654 23.9454 49.844 23.8907 49.8214 23.836L51.3147 22.3427C51.8352 21.822 51.8352 20.978 51.3147 20.4574L47.5427 16.6854C47.0137 16.1852 46.1864 16.1852 45.6574 16.6854L44.164 18.1787L44 18.112V16C44 15.2637 43.403 14.6667 42.6667 14.6667H37.3334C36.597 14.6667 36 15.2637 36 16V18.112L35.836 18.1787L34.3427 16.6854C33.822 16.1649 32.978 16.1649 32.4574 16.6854L28.6854 20.4574C28.1649 20.978 28.1649 21.822 28.6854 22.3427L30.1787 23.836C30.156 23.8907 30.1334 23.9454 30.112 24H28C27.2637 24 26.6667 24.597 26.6667 25.3334V30.6667C26.6667 31.403 27.2637 32 28 32H30.112C30.1347 32.0547 30.156 32.1094 30.1787 32.164L28.6854 33.6574C28.1649 34.178 28.1649 35.022 28.6854 35.5427L32.4574 39.3147C32.9864 39.8149 33.8137 39.8149 34.3427 39.3147L35.836 37.8214L36 37.888V40C36 40.7364 36.597 41.3334 37.3334 41.3334H42.6667C43.403 41.3334 44 40.7364 44 40V37.888L44.164 37.8214L45.6574 39.3147C46.178 39.8352 47.022 39.8352 47.5427 39.3147L51.3147 35.5427C51.8352 35.022 51.8352 34.178 51.3147 33.6574L49.8214 32.164C49.844 32.1094 49.8667 32.0547 49.888 32H52C52.7364 32 53.3334 31.403 53.3334 30.6667V25.3334C53.3334 24.597 52.7364 24 52 24ZM50.6667 29.3347H48.9414C48.3515 29.335 47.832 29.7227 47.664 30.288C47.5089 30.8145 47.2994 31.3235 47.0387 31.8067C46.7572 32.3257 46.8505 32.968 47.268 33.3854L48.4854 34.6027L46.6 36.4854L45.3827 35.268C44.9654 34.8505 44.323 34.7572 43.804 35.0387C43.3209 35.2994 42.8119 35.5089 42.2854 35.664C41.72 35.832 41.3324 36.3515 41.332 36.9414V38.6667H38.6667V36.9414C38.6664 36.3515 38.2787 35.832 37.7134 35.664C37.1869 35.5089 36.6779 35.2994 36.1947 35.0387C35.6757 34.7572 35.0334 34.8505 34.616 35.268L33.3987 36.4854L31.5147 34.6L32.732 33.3827C33.1495 32.9652 33.2429 32.323 32.9614 31.804C32.7007 31.3209 32.4912 30.8119 32.336 30.2854C32.1675 29.7205 31.648 29.3335 31.0587 29.3334H29.3334V26.6667H31.0587C31.6485 26.6664 32.168 26.2787 32.336 25.7134C32.4912 25.1869 32.7007 24.6779 32.9614 24.1947C33.2429 23.6757 33.1495 23.0334 32.732 22.616L31.5147 21.3987L33.4 19.5134L34.6174 20.7307C35.0349 21.1482 35.677 21.2415 36.196 20.96C36.6792 20.6994 37.1882 20.4899 37.7147 20.3347C38.279 20.1662 38.666 19.6475 38.6667 19.0587V17.3334H41.3334V19.0587C41.3337 19.6485 41.7214 20.168 42.2867 20.336C42.8132 20.4912 43.3222 20.7007 43.8054 20.9614C44.3244 21.2429 44.9667 21.1495 45.384 20.732L46.6014 19.5147L48.4867 21.4L47.2694 22.6174C46.8519 23.0347 46.7585 23.677 47.04 24.196C47.3007 24.6792 47.5102 25.1882 47.6654 25.7147C47.8334 26.28 48.3529 26.6677 48.9427 26.668H50.6667V29.3347Z" fill="#FED233"/>
<path d="M19.6093 38.276L17.724 36.3907L11.0573 43.0574C10.5368 43.578 10.5368 44.422 11.0573 44.9427L17.724 51.6094L19.6093 49.724L13.8853 44L19.6093 38.276Z" fill="#FED233"/>
<path d="M68.9426 43.0574L62.276 36.3907L60.3906 38.276L66.1146 44L60.3906 49.724L62.276 51.6094L68.9426 44.9427C69.4631 44.422 69.4631 43.578 68.9426 43.0574Z" fill="#FED233"/>
</svg>
