<svg width="79" height="61" viewBox="0 0 79 61" fill="none" xmlns="http://www.w3.org/2000/svg">
<path d="M6.06795 7.16587C6.37058 7.16587 6.6686 7.0439 6.88213 6.83045C7.09719 6.61853 7.22009 6.32274 7.22009 6.02239C7.22009 5.72203 7.09719 5.42625 6.88213 5.21433C6.6686 5.00088 6.37211 4.87891 6.06795 4.87891C5.76378 4.87891 5.4673 5.00088 5.25376 5.21433C5.0387 5.42625 4.9158 5.72203 4.9158 6.02239C4.9158 6.32274 5.0387 6.61853 5.25376 6.83045C5.4673 7.0439 5.76532 7.16587 6.06795 7.16587Z" fill="#FED233"/>
<path d="M9.75484 7.16587C10.059 7.16587 10.3555 7.0439 10.569 6.83045C10.7841 6.61853 10.907 6.32274 10.907 6.02239C10.907 5.72203 10.7841 5.42625 10.569 5.21433C10.3555 5.00088 10.0575 4.87891 9.75484 4.87891C9.45221 4.87891 9.15418 5.00088 8.94065 5.21433C8.72559 5.42625 8.60269 5.72203 8.60269 6.02239C8.60269 6.32274 8.72559 6.61853 8.94065 6.83045C9.15418 7.0439 9.45221 7.16587 9.75484 7.16587Z" fill="#FED233"/>
<path d="M13.4417 7.16587C13.7444 7.16587 14.0424 7.0439 14.2559 6.83045C14.471 6.61853 14.5939 6.32274 14.5939 6.02239C14.5939 5.72203 14.471 5.42625 14.2559 5.21433C14.0424 5.00088 13.7444 4.87891 13.4417 4.87891C13.1391 4.87891 12.8411 5.00088 12.6275 5.21433C12.4125 5.42625 12.2896 5.72203 12.2896 6.02239C12.2896 6.32274 12.4125 6.61853 12.6275 6.83045C12.8411 7.0439 13.1391 7.16587 13.4417 7.16587Z" fill="#FED233"/>
<path d="M18.3575 7.16587H65.0578C65.6941 7.16587 66.2099 6.6539 66.2099 6.02239C66.2099 5.39088 65.6941 4.87891 65.0578 4.87891H18.3575C17.7212 4.87891 17.2054 5.39088 17.2054 6.02239C17.2054 6.6539 17.7212 7.16587 18.3575 7.16587Z" fill="#FED233"/>
<path d="M69.9736 7.16587H72.4315C73.0678 7.16587 73.5836 6.6539 73.5836 6.02239C73.5836 5.39088 73.0678 4.87891 72.4315 4.87891H69.9736C69.3373 4.87891 68.8214 5.39088 68.8214 6.02239C68.8214 6.6539 69.3373 7.16587 69.9736 7.16587Z" fill="#FED233"/>
<path d="M67.5156 17.0761H45.3944C43.4038 17.0761 41.7844 18.6834 41.7844 20.659V20.7353H40.4786C38.488 20.7353 36.8686 22.3425 36.8686 24.3182V34.1521H34.257V30.4168C34.257 28.4411 32.6376 26.8338 30.647 26.8338H10.9837C8.99314 26.8338 7.37369 28.4411 7.37369 30.4168V40.1745C7.37369 42.1501 8.99314 43.7574 10.9837 43.7574H30.647C32.6376 43.7574 34.257 42.1501 34.257 40.1745V36.4391H36.8686V46.2731C36.8686 48.2487 38.488 49.856 40.4786 49.856H41.7844V49.9322C41.7844 51.9078 43.4038 53.5151 45.3944 53.5151H67.5156C69.5062 53.5151 71.1257 51.9078 71.1257 49.9322V47.4928C71.1257 45.5171 69.5062 43.9099 67.5156 43.9099H45.3944C43.4038 43.9099 41.7844 45.5171 41.7844 47.4928V47.569H40.4786C39.7586 47.569 39.1729 46.9877 39.1729 46.2731V36.4391H41.7844V36.5153C41.7844 38.491 43.4038 40.0982 45.3944 40.0982H67.5156C69.5062 40.0982 71.1257 38.491 71.1257 36.5153V34.0759C71.1257 32.1003 69.5062 30.493 67.5156 30.493H45.3944C43.4038 30.493 41.7844 32.1003 41.7844 34.0759V34.1521H39.1729V24.3182C39.1729 23.6036 39.7586 23.0222 40.4786 23.0222H41.7844V23.0985C41.7844 25.0741 43.4038 26.6814 45.3944 26.6814H67.5156C69.5062 26.6814 71.1257 25.0741 71.1257 23.0985V20.659C71.1257 18.6834 69.5062 17.0761 67.5156 17.0761ZM31.9528 40.1745C31.9528 40.8891 31.367 41.4704 30.647 41.4704H10.9837C10.2637 41.4704 9.67798 40.8891 9.67798 40.1745V30.4168C9.67798 29.7022 10.2637 29.1208 10.9837 29.1208H30.647C31.367 29.1208 31.9528 29.7022 31.9528 30.4168V40.1745ZM44.0887 47.4928C44.0887 46.7782 44.6744 46.1968 45.3944 46.1968H67.5156C68.2356 46.1968 68.8214 46.7782 68.8214 47.4928V49.9322C68.8214 50.6468 68.2356 51.2282 67.5156 51.2282H45.3944C44.6744 51.2282 44.0887 50.6468 44.0887 49.9322V47.4928ZM44.0887 34.0759C44.0887 33.3613 44.6744 32.78 45.3944 32.78H67.5156C68.2356 32.78 68.8214 33.3613 68.8214 34.0759V36.5153C68.8214 37.2299 68.2356 37.8113 67.5156 37.8113H45.3944C44.6744 37.8113 44.0887 37.2299 44.0887 36.5153V34.0759ZM68.8214 23.0985C68.8214 23.8131 68.2356 24.3944 67.5156 24.3944H45.3944C44.6744 24.3944 44.0887 23.8131 44.0887 23.0985V20.659C44.0887 19.9444 44.6744 19.3631 45.3944 19.3631H67.5156C68.2356 19.3631 68.8214 19.9444 68.8214 20.659V23.0985Z" fill="#FED233"/>
<path d="M72.4314 0H6.06796C2.72213 0 0 2.70167 0 6.02235V54.811C0 58.1317 2.72213 60.8333 6.06796 60.8333H72.4314C75.7773 60.8333 78.4994 58.1317 78.4994 54.811V6.02235C78.4994 2.70167 75.7773 0 72.4314 0ZM6.06796 2.28697H72.4314C74.5067 2.28697 76.1951 3.9627 76.1951 6.02235V9.75773H2.30429V6.02235C2.30429 3.9627 3.99272 2.28697 6.06796 2.28697ZM72.4314 58.5464H6.06796C3.99272 58.5464 2.30429 56.8706 2.30429 54.811V12.0447H76.1951V54.811C76.1951 56.8706 74.5067 58.5464 72.4314 58.5464Z" fill="#FED233"/>
</svg>
