<svg width="77" height="77" viewBox="0 0 77 77" fill="none" xmlns="http://www.w3.org/2000/svg">
<path d="M75.4961 0H1.50586C0.675404 0 0.00195508 0.673316 0.00195508 1.50394V57.7624C0.00195508 58.5929 0.675404 59.2664 1.50586 59.2664H4.21755C3.43282 60.863 3.00405 62.6444 3.00405 64.4964V68.7263C3.00405 68.7877 3.00887 68.8477 3.01593 68.9071C1.17049 70.5081 0 72.8672 0 75.4961C0 76.3265 0.673449 77 1.50391 77H23.2618H35.3474H47.3971H53.7401C54.5706 77 55.244 76.3265 55.244 75.4961V69.471C55.244 68.6405 54.5706 67.967 53.7401 67.967H47.1708V64.4964C47.1708 62.6442 46.742 60.863 45.9573 59.2664H75.4961C76.3266 59.2664 77 58.5929 77 57.7624V1.50379C77 0.673166 76.3266 0 75.4961 0ZM52.2362 70.9749V73.9923H48.7499C48.5231 72.8778 48.0491 71.8523 47.3882 70.9749H52.2362ZM3.00977 56.2585V48.1249H8.99306C8.69092 50.1484 8.53392 52.1921 8.53392 54.233V54.4771C7.72256 54.9874 6.9861 55.5868 6.334 56.2593C6.32874 56.2593 6.32347 56.2585 6.31821 56.2585H3.00977ZM8.53392 58.3112V66.7774C7.65533 66.7962 6.80848 66.9449 6.01171 67.2063V64.4965C6.01171 62.1404 6.93872 59.9358 8.53392 58.3112ZM33.9944 73.9921H23.2618H3.20843C3.87015 71.5676 6.09202 69.7803 8.72326 69.7803C9.52649 69.7803 10.3045 69.945 11.036 70.2695C11.4246 70.4424 11.8684 70.442 12.257 70.2692C12.6456 70.0966 12.9429 69.7672 13.0753 69.3631C14.9278 63.7056 20.1748 59.9044 26.1317 59.9044C31.4196 59.9044 36.15 62.8569 38.477 67.6094C38.5214 67.7001 38.5741 67.7841 38.6331 67.8614V68.4854C36.2854 69.4058 34.5076 71.471 33.9944 73.9921ZM38.4421 36.965H37.8816C37.7671 36.714 37.6533 36.4628 37.5337 36.2142C36.9415 34.9822 36.2828 33.7807 35.5695 32.6117L38.4419 29.739V36.965H38.4421ZM38.6331 54.2367V55.3437V62.5003C37.6088 61.3515 36.4263 60.3429 35.1141 59.5073C32.4316 57.7991 29.3257 56.8963 26.1317 56.8963C19.9877 56.8963 14.4641 60.2149 11.5414 65.4144V55.3437V54.233C11.5414 42.8531 16.4624 32.2222 25.0852 24.8749C33.7105 32.2222 38.6331 42.8547 38.6331 54.2367ZM37.1084 73.9921C37.7295 72.2361 39.4063 70.9747 41.3723 70.9747C43.3385 70.9747 45.0151 72.2361 45.6362 73.9921H37.1084ZM47.4627 39.9727C47.4637 39.9727 47.4646 39.9729 47.4655 39.9729C47.4664 39.9729 47.4675 39.9727 47.4684 39.9727H62.5011C62.5022 39.9727 62.5031 39.9729 62.504 39.9729C62.5049 39.9729 62.506 39.9727 62.5069 39.9727H73.9919V45.1171H40.6208C40.2284 43.3717 39.7225 41.6523 39.1113 39.9727H47.4627ZM41.4501 36.965V26.7313L45.9616 22.2196V36.965H41.4501ZM48.9694 36.965V19.9596L53.481 24.4713V36.965H48.9694ZM56.4887 36.965V23.8783L61.0002 19.3666V36.965H56.4887ZM41.6409 67.9672V65.6855V58.3111C41.7669 58.4394 41.8872 58.5726 42.0047 58.708C42.0128 58.7181 42.0214 58.7277 42.0297 58.7374C43.3845 60.3116 44.1631 62.3397 44.1631 64.4964V67.967H41.6409V67.9672ZM43.8399 56.2585C43.1881 55.5864 42.4518 54.9871 41.6408 54.4771V54.2367C41.6408 52.1945 41.4836 50.1496 41.181 48.1249H73.9922V56.2585H43.8399ZM73.9922 36.965H71.5273V26.0928C71.5273 25.2622 70.8538 24.5889 70.0234 24.5889C69.1929 24.5889 68.5195 25.2622 68.5195 26.0928V36.965H64.0079V16.7186C64.0079 16.6073 63.995 16.4992 63.972 16.3948L68.5195 11.8472V13.642C68.5195 14.4726 69.1929 15.1459 70.0234 15.1459C70.8538 15.1459 71.5273 14.4726 71.5273 13.642V8.21635C71.5273 7.38572 70.8538 6.7124 70.0234 6.7124H64.598C63.7676 6.7124 63.0941 7.38572 63.0941 8.21635C63.0941 9.04698 63.7676 9.72029 64.598 9.72029H66.3926L54.6882 21.425L49.659 16.3954C49.0716 15.8081 48.1196 15.8081 47.532 16.3954L33.877 30.0508C31.6517 26.9418 29.0019 24.1323 26.024 21.7508C25.4748 21.3115 24.6944 21.3115 24.1452 21.7509C19.3038 25.6241 15.3251 30.6253 12.6391 36.2136C11.2781 39.0456 10.2436 42.0429 9.55296 45.1173H3.00977V3.00789H73.9922V36.965Z" fill="#FED233"/>
<path d="M25.0873 36.965C20.2778 36.965 16.3647 40.8779 16.3647 45.6877C16.3647 50.4973 20.2776 54.4103 25.0873 54.4103C29.8967 54.4103 33.8096 50.4973 33.8096 45.6877C33.8096 40.8781 29.8967 36.965 25.0873 36.965ZM25.0873 51.4025C21.9361 51.4025 19.3726 48.8388 19.3726 45.6877C19.3726 42.5366 21.9363 39.9727 25.0873 39.9727C28.2382 39.9727 30.8019 42.5366 30.8019 45.6877C30.8019 48.8388 28.2382 51.4025 25.0873 51.4025Z" fill="#FED233"/>
<path d="M21.471 13.6086H7.63547C6.80501 13.6086 6.13156 14.2819 6.13156 15.1125C6.13156 15.9432 6.80501 16.6165 7.63547 16.6165H21.4711C22.3016 16.6165 22.975 15.9432 22.975 15.1125C22.9749 14.2819 22.3014 13.6086 21.471 13.6086Z" fill="#FED233"/>
<path d="M20.2831 20.065C20.0035 19.7853 19.6155 19.6244 19.2199 19.6244C18.8244 19.6244 18.4364 19.7853 18.1567 20.065C17.877 20.3448 17.716 20.7328 17.716 21.1283C17.716 21.5239 17.8768 21.9119 18.1567 22.1916C18.4364 22.4714 18.8244 22.6323 19.2199 22.6323C19.6155 22.6323 20.0035 22.4714 20.2831 22.1916C20.5643 21.9119 20.7238 21.5239 20.7238 21.1283C20.7238 20.7328 20.5643 20.3448 20.2831 20.065Z" fill="#FED233"/>
<path d="M12.6939 19.6242H7.63547C6.80501 19.6242 6.13156 20.2975 6.13156 21.1282C6.13156 21.9588 6.80501 22.6321 7.63547 22.6321H12.6939C13.5243 22.6321 14.1978 21.9588 14.1978 21.1282C14.1978 20.2975 13.5243 19.6242 12.6939 19.6242Z" fill="#FED233"/>
<path d="M15.9569 7.59296H7.63547C6.80501 7.59296 6.13156 8.26627 6.13156 9.0969C6.13156 9.92753 6.80501 10.6008 7.63547 10.6008H15.957C16.7875 10.6008 17.4609 9.92753 17.4609 9.0969C17.4609 8.26627 16.7873 7.59296 15.9569 7.59296Z" fill="#FED233"/>
<path d="M71.0866 20.065C70.8068 19.7853 70.4191 19.6244 70.0234 19.6244C69.6278 19.6244 69.2398 19.7853 68.9603 20.065C68.6805 20.3448 68.5195 20.7328 68.5195 21.1283C68.5195 21.5239 68.6804 21.9119 68.9603 22.1916C69.2398 22.4714 69.6278 22.6323 70.0234 22.6323C70.4191 22.6323 70.8069 22.4714 71.0866 22.1916C71.3664 21.9119 71.5273 21.5239 71.5273 21.1283C71.5273 20.7328 71.3665 20.3448 71.0866 20.065Z" fill="#FED233"/>
</svg>
