<svg width="295" height="78" viewBox="0 0 295 78" fill="none" xmlns="http://www.w3.org/2000/svg">
<path d="M70.3463 60.1871L70.9384 59.3706L70.117 58.7855L55.517 48.3855L54.7576 47.8445L54.1648 48.5643C52.0964 51.076 50.0579 53.1 47.6898 54.502C45.3396 55.8934 42.6171 56.7 39.1368 56.7C30.008 56.7 23.4368 49.0747 23.4368 39C23.4368 29.0216 30.0112 21.3 39.1368 21.3C45.4494 21.3 49.8864 24.1879 53.7559 29.0247L54.3709 29.7934L55.1492 29.1905L69.3492 18.1905L70.1129 17.5989L69.5479 16.8152C63.1856 7.98999 53.9996 1.59998 39.3368 1.59998C17.5881 1.59998 1.43677 18.0441 1.43677 39C1.43677 60.6613 17.9936 76.4 38.5368 76.4C46.4384 76.4 52.7112 74.6901 57.8655 71.7835C63.0138 68.8803 66.9896 64.8153 70.3463 60.1871ZM158.036 74V75H159.036H185.636C198.434 75 208.668 71.1883 215.713 64.7111C222.763 58.229 226.536 49.1524 226.536 38.8C226.536 28.3526 222.816 19.372 215.834 13.0108C208.861 6.65676 198.726 2.99998 186.036 2.99998H159.036H158.036V3.99998V74ZM234.501 74V75H235.501H292.301H293.301V74V57.5V56.5H292.301H255.701V47.4H288.301H289.301V46.4V31.1V30.1H288.301H255.701V21.5H291.801H292.801V20.5V3.99998V2.99998H291.801H235.501H234.501V3.99998V74ZM111.131 76.4C133.26 76.4 149.931 59.6751 149.931 39C149.931 18.1282 133.463 1.59998 111.331 1.59998C89.2013 1.59998 72.5305 18.3249 72.5305 39C72.5305 59.8717 88.9979 76.4 111.131 76.4ZM111.331 56.9C101.37 56.9 94.4305 48.6388 94.4305 39C94.4305 29.1525 101.178 21.1 111.131 21.1C121.195 21.1 128.131 29.365 128.131 39C128.131 48.8435 121.387 56.9 111.331 56.9ZM179.436 55.8V22H186.336C191.948 22 196.512 23.619 199.662 26.4892C202.801 29.3491 204.636 33.5409 204.636 38.9C204.636 44.4151 202.798 48.6016 199.667 51.4192C196.522 54.2497 191.959 55.8 186.336 55.8H179.436Z" stroke="white" stroke-width="2"/>
</svg>
