<svg width="76" height="47" viewBox="0 0 76 47" fill="none" xmlns="http://www.w3.org/2000/svg">
<path d="M60.0084 32.2262C58.5169 29.1492 53.181 24.8783 48.0257 20.7516C45.1504 18.4516 42.4334 16.277 40.7012 14.5631C40.2674 14.1307 39.6182 13.9928 39.0451 14.1965C37.978 14.5788 37.3192 14.8733 36.8 15.102C36.0084 15.4529 35.7424 15.572 34.6751 15.6785C34.2032 15.7255 33.779 15.9762 33.5161 16.3647C31.2772 19.6767 28.9592 19.3947 27.4107 18.8809C26.9167 18.718 26.8281 18.508 26.7806 18.3075C26.4481 16.932 28.117 13.7296 30.2797 11.5894C35.4256 6.49446 38.0792 5.21911 43.6842 7.69769C50.0429 10.5115 56.4142 12.7143 56.4776 12.7362C57.3105 13.0213 58.2066 12.5889 58.4948 11.7711C58.7797 10.9533 58.3459 10.0602 57.5194 9.77515C57.456 9.75326 51.2114 7.59429 44.9794 4.8337C37.7182 1.6219 33.7345 3.73695 28.044 9.37093C25.878 11.5142 22.9361 15.8508 23.6961 19.0313C24.0222 20.3849 24.985 21.3877 26.4162 21.8545C30.0041 23.0264 33.2783 21.9046 35.7167 18.7023C36.7237 18.5488 37.2716 18.3232 38.0948 17.9566C38.3925 17.825 38.7408 17.6715 39.2032 17.4866C41.0146 19.1692 43.4592 21.1276 46.0337 23.1862C50.6887 26.9118 55.9676 31.1357 57.1551 33.5798C57.741 34.7861 57.1107 35.5727 56.6832 35.933C56.0562 36.4657 55.1981 36.6349 54.7326 36.312C54.2196 35.9642 53.5515 35.9424 53.0226 36.2556C52.4906 36.5689 52.193 37.1612 52.2595 37.7691C52.3671 38.7655 51.4456 39.3358 51.0466 39.5332C50.0332 40.0409 48.9756 39.9532 48.5797 39.5897C48.1363 39.1824 47.4998 39.0632 46.9362 39.27C46.3726 39.4799 45.9798 39.9939 45.9228 40.5892C45.8278 41.6169 45.0583 42.6039 44.0545 42.9893C43.5699 43.171 42.867 43.2807 42.2368 42.7104C41.8442 42.3595 41.2995 42.2247 40.7897 42.3469C40.2736 42.4722 39.8587 42.842 39.6782 43.3339C39.6181 43.4906 39.4818 43.8666 37.9998 43.8666C36.9453 43.8666 35.0485 43.1616 34.1207 42.5537C33.0092 41.8298 26.0393 36.6848 20.0196 31.6964C19.1741 30.9914 17.7111 29.481 16.4191 28.1462C15.2727 26.9617 14.2246 25.887 13.6862 25.4358C13.0117 24.8718 12.0142 24.9564 11.4537 25.6207C10.8901 26.2818 10.9723 27.2721 11.6406 27.8298C12.1315 28.2403 13.0815 29.2335 14.1296 30.3145C15.542 31.7747 17.0017 33.285 17.9835 34.0998C23.8799 38.9848 30.9669 44.2584 32.3791 45.1763C33.5445 45.9347 36.0556 47 38 47C39.5611 47 40.7614 46.6459 41.5941 45.9535C42.7087 46.3828 43.9755 46.3859 45.1946 45.9159C46.6355 45.3643 47.8197 44.252 48.4911 42.9047C49.7387 43.1679 51.167 42.983 52.4652 42.3376C53.7351 41.7047 54.6533 40.7365 55.1093 39.6052C56.3697 39.671 57.6679 39.2292 58.7415 38.3174C60.5594 36.779 61.0596 34.3851 60.0084 32.2262Z" fill="white"/>
<path d="M31.6666 6.26575H17.4166C16.5426 6.26575 15.8333 6.96768 15.8333 7.8325C15.8333 8.69733 16.5426 9.39926 17.4166 9.39926H31.6666C32.5406 9.39926 33.25 8.69733 33.25 7.8325C33.25 6.96768 32.5406 6.26575 31.6666 6.26575Z" fill="white"/>
<path d="M64.6475 28.8922C64.1566 28.1747 63.175 27.9773 62.4499 28.4661L57.8203 31.543C57.0952 32.0255 56.9019 33.0001 57.3897 33.7176C57.6968 34.1657 58.1972 34.4101 58.7071 34.4101C59.0079 34.4101 59.3151 34.3255 59.5874 34.1438L64.2171 31.0669C64.942 30.5842 65.1351 29.6098 64.6475 28.8922Z" fill="white"/>
<path d="M54.8181 36.3686C53.6845 35.485 48.6146 30.3494 45.4796 27.1157C44.8748 26.489 43.871 26.4671 43.2408 27.0687C42.6074 27.6672 42.5884 28.6604 43.1933 29.2841C44.0071 30.1238 51.1859 37.5281 52.8548 38.8317C53.1429 39.0573 53.4913 39.167 53.8333 39.167C54.2988 39.167 54.7643 38.9602 55.0809 38.5685C55.6225 37.8915 55.5054 36.9045 54.8181 36.3686Z" fill="white"/>
<path d="M48.4911 39.5114C46.5943 38.0105 41.8285 33.0001 40.7518 31.8408C40.1564 31.2016 39.1589 31.164 38.5129 31.7468C37.87 32.3327 37.8258 33.3261 38.4179 33.9622C38.4749 34.0217 44.1623 40.0975 46.5119 41.9587C46.8033 42.1874 47.1548 42.3002 47.4999 42.3002C47.9623 42.3002 48.4245 42.0965 48.738 41.7143C49.2829 41.0373 49.172 40.0503 48.4911 39.5114Z" fill="white"/>
<path d="M42.1895 42.6668C39.9316 40.7837 35.3115 35.9174 34.409 34.9617C33.8105 34.3288 32.8066 34.2943 32.1701 34.8865C31.5305 35.4787 31.4988 36.4688 32.0941 37.1019C33.3925 38.4774 37.8131 43.1149 40.147 45.0639C40.4446 45.3114 40.8056 45.4336 41.1666 45.4336C41.6163 45.4336 42.066 45.2425 42.3795 44.8759C42.9431 44.2115 42.8576 43.2245 42.1895 42.6668Z" fill="white"/>
<path d="M18.506 3.56174C15.7921 1.01736 4.94 0.193219 1.67838 0.00212951C1.22877 -0.0197554 0.813883 0.127418 0.497266 0.425141C0.1805 0.719634 0 1.13324 0 1.56566V29.7664C0 30.6312 0.709383 31.3332 1.58338 31.3332H11.0834C11.7674 31.3332 12.3754 30.8977 12.5875 30.2521C12.8186 29.5502 18.2749 12.9808 18.9936 4.83386C19.0349 4.35753 18.8575 3.88752 18.506 3.56174ZM9.9275 28.1998H3.16662V3.24522C8.2555 3.64311 13.7465 4.50793 15.7415 5.46676C14.9024 12.3289 11.1055 24.5211 9.9275 28.1998Z" fill="white"/>
<path d="M74.4166 3.13245C61.9842 3.13245 55.0872 6.28153 54.7991 6.41313C54.3875 6.60422 54.0802 6.95835 53.9536 7.38767C53.827 7.817 53.8902 8.27761 54.1277 8.65979C56.0847 11.7776 62.2122 29.0929 63.3902 33.3166C63.5802 33.9966 64.2041 34.4666 64.9166 34.4666H74.4166C75.2906 34.4666 76 33.7646 76 32.8998V4.69906C76 3.83115 75.2906 3.13245 74.4166 3.13245ZM72.8334 31.3332H66.101C64.6 26.4951 60.1666 13.88 57.6935 8.66611C60.1096 7.8546 65.2999 6.46014 72.8334 6.28476V31.3332Z" fill="white"/>
</svg>
