<svg width="218" height="78" viewBox="0 0 218 78" fill="none" xmlns="http://www.w3.org/2000/svg">
<path d="M1.93439 74V75H2.93439H22.3344H23.3344V74V55H31.9344C40.7874 55 48.5542 52.788 54.1303 48.3714C59.7359 43.9314 63.0344 37.3343 63.0344 28.8C63.0344 20.6884 60.0784 14.1942 54.7637 9.74565C49.4716 5.31592 41.9449 2.99998 32.9344 2.99998H2.93439H1.93439V3.99998V74ZM69.2195 74V75H70.2195H89.6195H90.6195V74V53.8H97.5837L111.387 74.5538L111.684 75H112.22H134.62H136.516L135.445 73.4352L119.421 50.0228C127.825 46.0566 133.32 38.7819 133.32 28.1C133.32 20.7826 131.146 15.1117 126.827 10.7929C121.879 5.8451 114.185 2.99998 103.32 2.99998H70.2195H69.2195V3.99998V74ZM23.3344 37.8V21.3H31.4344C34.7993 21.3 37.3459 22.0711 39.0322 23.4289C40.6858 24.7603 41.6344 26.7537 41.6344 29.5C41.6344 32.0858 40.692 34.1193 39.0273 35.5229C37.343 36.943 34.8197 37.8 31.5344 37.8H23.3344ZM90.6195 36.6V21.8H102.32C105.446 21.8 107.825 22.4762 109.399 23.6815C110.933 24.8556 111.82 26.6191 111.82 29.1C111.82 31.4918 110.974 33.3175 109.459 34.5657C107.918 35.835 105.571 36.6 102.42 36.6H90.6195ZM177.295 76.4C199.424 76.4 216.095 59.6751 216.095 39C216.095 18.1282 199.627 1.59998 177.495 1.59998C155.365 1.59998 138.695 18.3249 138.695 39C138.695 59.8717 155.162 76.4 177.295 76.4ZM177.495 56.9C167.534 56.9 160.595 48.6388 160.595 39C160.595 29.1525 167.342 21.1 177.295 21.1C187.359 21.1 194.295 29.365 194.295 39C194.295 48.8435 187.551 56.9 177.495 56.9Z" stroke="#FED233" stroke-width="2"/>
</svg>
