<svg width="123" height="19" viewBox="0 0 123 19" fill="none" xmlns="http://www.w3.org/2000/svg">
<path d="M0.488 18H5.144V13.2H7.448C11.624 13.2 14.672 11.112 14.672 7.152C14.672 3.384 11.936 1.2 7.688 1.2H0.488V18ZM5.144 9.552V5.112H7.328C9.008 5.112 10.016 5.88 10.016 7.32C10.016 8.688 9.008 9.552 7.352 9.552H5.144ZM16.6364 18H21.2924V12.912H23.3324L26.7164 18H32.0924L28.0844 12.144C30.1724 11.256 31.5404 9.552 31.5404 6.984C31.5404 5.28 31.0364 3.984 30.0524 3C28.9244 1.872 27.1484 1.2 24.5804 1.2H16.6364V18ZM21.2924 9.264V5.232H24.3404C25.9004 5.232 26.8604 5.904 26.8604 7.224C26.8604 8.496 25.9484 9.264 24.3644 9.264H21.2924ZM42.3344 18.336C47.5184 18.336 51.4064 14.424 51.4064 9.6C51.4064 4.728 47.5664 0.864 42.3824 0.864C37.1984 0.864 33.3104 4.776 33.3104 9.6C33.3104 14.472 37.1504 18.336 42.3344 18.336ZM42.3824 14.136C39.8384 14.136 38.0864 12.024 38.0864 9.6C38.0864 7.128 39.7904 5.064 42.3344 5.064C44.9024 5.064 46.6544 7.176 46.6544 9.6C46.6544 12.072 44.9504 14.136 42.3824 14.136Z" fill="white"/>
<path d="M61.9197 18.336C65.6398 18.336 67.7758 16.728 69.3597 14.544L65.8558 12.048C64.8478 13.272 63.8157 14.088 62.0638 14.088C59.7118 14.088 58.0558 12.12 58.0558 9.6C58.0558 7.104 59.7118 5.112 62.0638 5.112C63.6718 5.112 64.7997 5.856 65.7598 7.056L69.1677 4.416C67.6797 2.352 65.5438 0.864 62.1118 0.864C57.0237 0.864 53.2557 4.704 53.2557 9.6C53.2557 14.664 57.1198 18.336 61.9197 18.336ZM79.3423 18.336C84.5262 18.336 88.4142 14.424 88.4142 9.6C88.4142 4.728 84.5743 0.864 79.3903 0.864C74.2063 0.864 70.3182 4.776 70.3182 9.6C70.3182 14.472 74.1582 18.336 79.3423 18.336ZM79.3903 14.136C76.8463 14.136 75.0943 12.024 75.0943 9.6C75.0943 7.128 76.7982 5.064 79.3423 5.064C81.9103 5.064 83.6622 7.176 83.6622 9.6C83.6622 12.072 81.9583 14.136 79.3903 14.136ZM90.8396 18H97.2236C103.272 18 106.8 14.4 106.8 9.552C106.8 4.656 103.32 1.2 97.3196 1.2H90.8396V18ZM95.4956 13.872V5.28H97.3916C100.176 5.28 102.024 6.888 102.024 9.576C102.024 12.336 100.176 13.872 97.3916 13.872H95.4956ZM109.191 18H122.823V14.04H113.799V11.376H121.863V7.704H113.799V5.16H122.703V1.2H109.191V18Z" fill="#FED233"/>
</svg>
